<mxfile host="app.diagrams.net" modified="2023-08-10T07:39:31.197Z" agent="Mozilla/5.0 (Macintosh; Intel Mac OS X 10_15_7) AppleWebKit/537.36 (KHTML, like Gecko) Chrome/115.0.0.0 Safari/537.36" version="21.6.7" etag="_LavzcmW40deNDf7Pc43" type="github">
  <diagram name="Page-1" id="6FsxgQUjii_p6thQt59m">
    <mxGraphModel>
      <root>
        <mxCell id="0" />
        <mxCell id="1" parent="0" />
      </root>
    </mxGraphModel>
  </diagram>
</mxfile>
